<?xml version="1.0" encoding="utf-8"?>
<!-- Generator: Adobe Illustrator 17.0.0, SVG Export Plug-In . SVG Version: 6.00 Build 0)  -->
<!DOCTYPE svg PUBLIC "-//W3C//DTD SVG 1.1//EN" "http://www.w3.org/Graphics/SVG/1.1/DTD/svg11.dtd">
<svg version="1.1" id="Слой_2" xmlns="http://www.w3.org/2000/svg" xmlns:xlink="http://www.w3.org/1999/xlink" x="0px" y="0px"
	 width="227.704px" height="53.466px" viewBox="0 0 227.704 53.466" enable-background="new 0 0 227.704 53.466"
	 xml:space="preserve">
<path fill="#FFFFFF" d="M48.214,25.344c0,0,9.71-13.759-6.081-22.592C38.205,0.556,24,1.166,24,1.166v49.945c0,0,16.667,0,22.964,0
	C50.964,51.112,60.464,35.011,48.214,25.344z M34,8.244c0,0,7.167-0.333,7.167,7c0,7.333-7.167,7-7.167,7V8.244z M34,43.362V27.737
	l10.272,10.522L34,43.362z"/>
<path fill="#FFFFFF" d="M75,3.112v33c0,0-1,3.333-5,3.333s-5-3.333-5-3.333v-33h-9v34c0,12,14,12,14,12s14,1.375,14-12v-34H75z"/>
<polygon fill="#FFFFFF" points="88,3.112 88,11.112 96,11.112 96,51.112 106,51.112 106,11.112 115,11.112 115,3.112 "/>
<polygon fill="#FFFFFF" points="119,3.112 119,11.112 127,11.112 127,51.112 137,51.112 137,11.112 146,11.112 146,3.112 "/>
<path fill="#FFFFFF" d="M163,1.112c0,0-16-3-14.667,28.333c0,0-0.333,19,14.667,19.667c15-0.667,14.667-19.667,14.667-19.667
	C179-1.888,163,1.112,163,1.112z M163,38.778c-4.749-0.408-4.644-12.031-4.644-12.031C157.934,7.58,163,9.415,163,9.415
	s5.066-1.835,4.644,17.333C167.644,26.747,167.749,38.37,163,38.778z"/>
<path fill="#FFFFFF" d="M0,9.195c0,0,5.167,2.458,9.5-7.875L18,1.034v50.077H9v-34l-9-0.167V9.195z"/>
<path fill="#FFFFFF" d="M178,2.368l13.463,46.577c0,0,5.385-32.581,29.889-32.581L178,2.368z"/>
<rect x="200" y="36.112" fill="#FFFFFF" width="7" height="15"/>
<path fill="#FFFFFF" d="M220.312,49.112h-6.607V23.028c0,0,0.623-0.917,2.878-2.083c2.417-1.25,3.729-0.833,3.729-0.833V49.112z"/>
</svg>
